<svg width="135" height="135" viewBox="0 0 135 135" fill="none" xmlns="http://www.w3.org/2000/svg">
<circle cx="3.96154" cy="3.96154" r="3.96154" fill="#FF0000"/>
<circle cx="35.6539" cy="3.96154" r="3.96154" fill="#FF0000"/>
<circle cx="67.3463" cy="3.96154" r="3.96154" fill="#FF0000"/>
<circle cx="99.0387" cy="3.96154" r="3.96154" fill="#FF0000"/>
<circle cx="130.731" cy="3.96154" r="3.96154" fill="#FF0000"/>
<circle cx="3.96154" cy="35.6539" r="3.96154" fill="#FF0000"/>
<circle cx="35.6539" cy="35.6539" r="3.96154" fill="#FF0000"/>
<circle cx="67.3463" cy="35.6539" r="3.96154" fill="#FF0000"/>
<circle cx="99.0387" cy="35.6539" r="3.96154" fill="#FF0000"/>
<circle cx="130.731" cy="35.6539" r="3.96154" fill="#FF0000"/>
<circle cx="3.96154" cy="67.3461" r="3.96154" fill="#FF0000"/>
<circle cx="35.6539" cy="67.3461" r="3.96154" fill="#FF0000"/>
<circle cx="67.3463" cy="67.3461" r="3.96154" fill="#FF0000"/>
<circle cx="99.0387" cy="67.3461" r="3.96154" fill="#FF0000"/>
<circle cx="130.731" cy="67.3461" r="3.96154" fill="#FF0000"/>
<circle cx="3.96154" cy="99.0384" r="3.96154" fill="#FF0000"/>
<circle cx="35.6539" cy="99.0384" r="3.96154" fill="#FF0000"/>
<circle cx="67.3463" cy="99.0384" r="3.96154" fill="#FF0000"/>
<circle cx="99.0387" cy="99.0384" r="3.96154" fill="#FF0000"/>
<circle cx="130.731" cy="99.0384" r="3.96154" fill="#FF0000"/>
<circle cx="3.96154" cy="130.731" r="3.96154" fill="#FF0000"/>
<circle cx="35.6539" cy="130.731" r="3.96154" fill="#FF0000"/>
<circle cx="67.3463" cy="130.731" r="3.96154" fill="#FF0000"/>
<circle cx="99.0387" cy="130.731" r="3.96154" fill="#FF0000"/>
<circle cx="130.731" cy="130.731" r="3.96154" fill="#FF0000"/>
</svg>
